<?xml version="1.0" encoding="UTF-8" standalone="no"?>
<svg
   xmlns:dc="http://purl.org/dc/elements/1.1/"
   xmlns:cc="http://creativecommons.org/ns#"
   xmlns:rdf="http://www.w3.org/1999/02/22-rdf-syntax-ns#"
   xmlns:svg="http://www.w3.org/2000/svg"
   xmlns="http://www.w3.org/2000/svg"
   viewBox="0 0 220.69333 141.29333"
   height="141.29333"
   width="220.69333"
   xml:space="preserve"
   id="svg2"
   version="1.1"><metadata
     id="metadata8"><rdf:RDF><cc:Work
         rdf:about=""><dc:format>image/svg+xml</dc:format><dc:type
           rdf:resource="http://purl.org/dc/dcmitype/StillImage" /></cc:Work></rdf:RDF></metadata><defs
     id="defs6" /><g
     transform="matrix(1.3333333,0,0,-1.3333333,0,141.29333)"
     id="g10"><g
       transform="scale(0.1)"
       id="g12"><path
         id="path14"
         style="fill:#231f20;fill-opacity:1;fill-rule:nonzero;stroke:none"
         d="M 1506.98,1059.65 H 148.23 c -5.656,0 -11.328,0 -16.976,-0.03 -4.774,-0.04 -9.539,-0.09 -14.301,-0.22 -10.39,-0.28 -20.871,-0.89 -31.1288,-2.74 -10.4258,-1.87 -20.125,-4.93 -29.5898,-9.75 -9.3008,-4.73 -17.8203,-10.92 -25.1992,-18.3 -7.3829,-7.39 -13.5743,-15.89 -18.3008,-25.2 C 7.91406,993.941 4.85156,984.238 2.98828,973.809 1.13672,963.543 0.519531,953.066 0.238281,942.688 0.109375,937.926 0.0546875,933.16 0.0234375,928.398 -0.0078125,922.734 0,917.078 0,911.406 V 148.23 c 0,-5.671 -0.0078125,-11.32 0.0234375,-16.992 0.03125,-4.761 0.0859375,-9.523 0.2148435,-14.289 C 0.519531,106.578 1.13672,96.1016 2.98828,85.8438 4.85156,75.4063 7.91406,65.707 12.7344,56.2383 17.4609,46.9297 23.6523,38.4219 31.0352,31.0391 38.4141,23.6484 46.9336,17.4609 56.2344,12.7383 65.6992,7.91016 75.3984,4.85156 85.8242,2.96875 96.082,1.14063 106.563,0.519531 116.953,0.238281 121.715,0.128906 126.48,0.0585938 131.254,0.0390625 136.902,0 142.574,0 148.23,0 h 1358.75 c 5.65,0 11.32,0 16.97,0.0390625 4.76,0.0195313 9.52,0.0898435 14.31,0.1992185 10.37,0.28125 20.85,0.902349 31.13,2.730469 10.41,1.88281 20.11,4.94141 29.58,9.76955 9.31,4.7226 17.8,10.9101 25.2,18.3008 7.37,7.3828 13.56,15.8906 18.3,25.1992 4.83,9.4687 7.89,19.168 9.74,29.6055 1.86,10.2578 2.46,20.7342 2.74,31.1052 0.13,4.766 0.19,9.528 0.22,14.289 0.04,5.672 0.04,11.321 0.04,16.992 v 763.176 c 0,5.672 0,11.328 -0.04,16.992 -0.03,4.762 -0.09,9.528 -0.22,14.29 -0.28,10.378 -0.88,20.855 -2.74,31.121 -1.85,10.429 -4.91,20.132 -9.74,29.601 -4.74,9.31 -10.93,17.81 -18.3,25.2 -7.4,7.38 -15.89,13.57 -25.2,18.3 -9.47,4.82 -19.17,7.88 -29.58,9.75 -10.28,1.85 -20.76,2.46 -31.13,2.74 -4.79,0.13 -9.55,0.18 -14.31,0.22 -5.65,0.03 -11.32,0.03 -16.97,0.03 v 0" /><path
         id="path16"
         style="fill:#ffffff;fill-opacity:1;fill-rule:nonzero;stroke:none"
         d="m 1506.98,1024.33 16.72,-0.03 c 4.52,-0.03 9.05,-0.08 13.6,-0.21 7.92,-0.21 17.19,-0.64 25.83,-2.19 7.5,-1.35 13.8,-3.41 19.84,-6.48 5.97,-3.03 11.43,-7.01 16.2,-11.77 4.79,-4.798 8.77,-10.271 11.84,-16.302 3.06,-5.996 5.1,-12.262 6.45,-19.825 1.54,-8.539 1.97,-17.832 2.18,-25.8 0.13,-4.496 0.19,-8.996 0.21,-13.602 0.04,-5.566 0.04,-11.133 0.04,-16.715 V 148.23 c 0,-5.582 0,-11.136 -0.04,-16.824 -0.02,-4.496 -0.08,-8.996 -0.21,-13.5 -0.21,-7.957 -0.64,-17.242 -2.2,-25.8865 -1.33,-7.457 -3.37,-13.7226 -6.45,-19.75 -3.06,-6.0156 -7.03,-11.4843 -11.8,-16.25 -4.8,-4.8007 -10.24,-8.7578 -16.28,-11.8203 -6,-3.0586 -12.28,-5.1211 -19.71,-6.4492 -8.82,-1.5703 -18.47,-2.0117 -25.74,-2.1992 -4.57,-0.1094 -9.12,-0.1719 -13.79,-0.1914 -5.55,-0.0391 -11.13,-0.0391 -16.69,-0.0391 H 148.23 c -0.074,0 -0.144,0 -0.218,0 -5.496,0 -11,0 -16.594,0.0391 -4.563,0.0195 -9.113,0.082 -13.512,0.1797 -7.437,0.1992 -17.093,0.6406 -25.8357,2.1992 -7.4961,1.3398 -13.7812,3.4023 -19.8555,6.5 -5.9804,3.0312 -11.4218,6.9922 -16.2226,11.8008 -4.7656,4.7539 -8.7227,10.2031 -11.7852,16.2304 -3.0625,6.0196 -5.1132,12.3047 -6.4609,19.8516 -1.5586,8.6249 -1.9883,17.8749 -2.2031,25.7769 -0.1211,4.524 -0.1719,9.047 -0.1992,13.547 l -0.0235,13.278 v 3.507 763.176 3.508 l 0.0235,13.25 c 0.0273,4.527 0.0781,9.051 0.1992,13.57 0.2148,7.911 0.6445,17.164 2.2148,25.864 1.336,7.476 3.3867,13.761 6.4649,19.812 3.039,5.981 7.0039,11.438 11.7929,16.23 4.7696,4.77 10.2305,8.74 16.2461,11.79 6.0117,3.07 12.3086,5.12 19.8047,6.47 8.6406,1.55 17.9106,1.98 25.8516,2.19 4.523,0.13 9.051,0.18 13.543,0.21 l 16.769,0.03 h 1358.75" /><path
         id="path18"
         style="fill:#231f20;fill-opacity:1;fill-rule:nonzero;stroke:none"
         d="m 435.086,701.953 c 14.031,17.551 23.551,41.117 21.043,65.195 -20.543,-1.019 -45.609,-13.55 -60.121,-31.113 -13.028,-15.043 -24.563,-39.594 -21.555,-62.668 23.059,-2 46.094,11.528 60.633,28.586" /><path
         id="path20"
         style="fill:#231f20;fill-opacity:1;fill-rule:nonzero;stroke:none"
         d="m 455.863,668.863 c -33.484,1.996 -61.953,-19.004 -77.945,-19.004 -16,0 -40.488,18 -66.973,17.516 -34.472,-0.508 -66.457,-19.996 -83.953,-50.996 -35.98,-62.016 -9.496,-154.004 25.496,-204.512 16.992,-24.988 37.469,-52.5 64.45,-51.512 25.496,1 35.488,16.508 66.476,16.508 30.965,0 39.969,-16.508 66.953,-16.008 27.988,0.5 45.485,25 62.477,50.012 19.492,28.485 27.469,55.988 27.972,57.496 -0.503,0.5 -53.964,21.012 -54.461,82.512 -0.503,51.492 41.973,75.984 43.973,77.504 -23.988,35.48 -61.469,39.48 -74.465,40.484" /><path
         id="path22"
         style="fill:#231f20;fill-opacity:1;fill-rule:nonzero;stroke:none"
         d="m 707.328,540.477 h 66.805 c 50.691,0 79.539,27.293 79.539,74.601 0,47.305 -28.848,74.34 -79.277,74.34 h -67.067 z m 82.402,198.07 c 72.782,0 123.465,-50.168 123.465,-123.207 0,-73.305 -51.722,-123.735 -125.285,-123.735 H 707.328 V 363.465 H 649.105 V 738.547 H 789.73" /><path
         id="path24"
         style="fill:#231f20;fill-opacity:1;fill-rule:nonzero;stroke:none"
         d="m 1104.39,465.355 v 21.055 l -64.72,-4.16 c -36.39,-2.336 -55.361,-15.852 -55.361,-39.508 0,-22.875 19.751,-37.695 50.681,-37.695 39.51,0 69.4,25.223 69.4,60.308 z M 927.641,441.18 c 0,48.09 36.652,75.644 104.229,79.8 l 72.52,4.422 v 20.793 c 0,30.41 -20.01,47.047 -55.62,47.047 -29.38,0 -50.692,-15.074 -55.11,-38.211 h -52.508 c 1.567,48.61 47.313,83.957 109.178,83.957 66.54,0 109.95,-34.832 109.95,-88.894 V 363.465 h -53.81 v 44.965 h -1.3 c -15.33,-29.371 -49.13,-47.825 -85.78,-47.825 -54.062,0 -91.749,32.231 -91.749,80.575" /><path
         id="path26"
         style="fill:#231f20;fill-opacity:1;fill-rule:nonzero;stroke:none"
         d="m 1209.75,263.129 v 44.965 c 3.64,-0.516 12.47,-1.035 17.15,-1.035 25.73,0 40.29,10.91 49.13,38.988 l 5.2,16.637 -98.52,272.925 h 60.82 l 68.63,-221.457 h 1.3 l 68.62,221.457 h 59.27 L 1339.19,348.902 c -23.39,-65.757 -50.17,-87.339 -106.83,-87.339 -4.42,0 -18.72,0.523 -22.61,1.566" /></g></g></svg>